<svg width="1604" height="435" viewBox="0 0 1604 435" fill="none" xmlns="http://www.w3.org/2000/svg">
<rect x="217.116" y="51.6188" width="234.048" height="234.048" transform="rotate(45 217.116 51.6188)" stroke="white" stroke-width="73"/>
<path d="M606.17 161.33C606.17 172.35 602.37 181.533 594.77 188.88C587.297 196.1 575.833 199.71 560.38 199.71H534.92V255H517.63V122.57H560.38C575.327 122.57 586.663 126.18 594.39 133.4C602.243 140.62 606.17 149.93 606.17 161.33ZM560.38 185.46C570.007 185.46 577.1 183.37 581.66 179.19C586.22 175.01 588.5 169.057 588.5 161.33C588.5 144.99 579.127 136.82 560.38 136.82H534.92V185.46H560.38ZM722.659 198.95C722.659 202.243 722.469 205.727 722.089 209.4H638.869C639.503 219.66 642.986 227.703 649.319 233.53C655.779 239.23 663.569 242.08 672.689 242.08C680.163 242.08 686.369 240.37 691.309 236.95C696.376 233.403 699.923 228.717 701.949 222.89H720.569C717.783 232.897 712.209 241.067 703.849 247.4C695.489 253.607 685.103 256.71 672.689 256.71C662.809 256.71 653.943 254.493 646.089 250.06C638.363 245.627 632.283 239.357 627.849 231.25C623.416 223.017 621.199 213.517 621.199 202.75C621.199 191.983 623.353 182.547 627.659 174.44C631.966 166.333 637.983 160.127 645.709 155.82C653.563 151.387 662.556 149.17 672.689 149.17C682.569 149.17 691.309 151.323 698.909 155.63C706.509 159.937 712.336 165.89 716.389 173.49C720.569 180.963 722.659 189.45 722.659 198.95ZM704.799 195.34C704.799 188.753 703.343 183.117 700.429 178.43C697.516 173.617 693.526 170.007 688.459 167.6C683.519 165.067 678.009 163.8 671.929 163.8C663.189 163.8 655.716 166.587 649.509 172.16C643.429 177.733 639.946 185.46 639.059 195.34H704.799ZM840.482 198.95C840.482 202.243 840.292 205.727 839.912 209.4H756.692C757.325 219.66 760.808 227.703 767.142 233.53C773.602 239.23 781.392 242.08 790.512 242.08C797.985 242.08 804.192 240.37 809.132 236.95C814.198 233.403 817.745 228.717 819.772 222.89H838.392C835.605 232.897 830.032 241.067 821.672 247.4C813.312 253.607 802.925 256.71 790.512 256.71C780.632 256.71 771.765 254.493 763.912 250.06C756.185 245.627 750.105 239.357 745.672 231.25C741.238 223.017 739.022 213.517 739.022 202.75C739.022 191.983 741.175 182.547 745.482 174.44C749.788 166.333 755.805 160.127 763.532 155.82C771.385 151.387 780.378 149.17 790.512 149.17C800.392 149.17 809.132 151.323 816.732 155.63C824.332 159.937 830.158 165.89 834.212 173.49C838.392 180.963 840.482 189.45 840.482 198.95ZM822.622 195.34C822.622 188.753 821.165 183.117 818.252 178.43C815.338 173.617 811.348 170.007 806.282 167.6C801.342 165.067 795.832 163.8 789.752 163.8C781.012 163.8 773.538 166.587 767.332 172.16C761.252 177.733 757.768 185.46 756.882 195.34H822.622ZM880.594 167.79C883.634 161.837 887.94 157.213 893.514 153.92C899.214 150.627 906.117 148.98 914.224 148.98V166.84H909.664C890.284 166.84 880.594 177.353 880.594 198.38V255H863.304V150.88H880.594V167.79Z" fill="white"/>
<path d="M542.12 330.6H517.8L513.32 343H505.64L525.8 287.56H534.2L554.28 343H546.6L542.12 330.6ZM540.04 324.68L529.96 296.52L519.88 324.68H540.04ZM584.426 298.36C589.76 298.36 594.08 299.987 597.386 303.24C600.693 306.44 602.346 311.08 602.346 317.16V343H595.146V318.2C595.146 313.827 594.053 310.493 591.866 308.2C589.68 305.853 586.693 304.68 582.906 304.68C579.066 304.68 576 305.88 573.706 308.28C571.466 310.68 570.346 314.173 570.346 318.76V343H563.066V299.16H570.346V305.4C571.786 303.16 573.733 301.427 576.186 300.2C578.693 298.973 581.44 298.36 584.426 298.36ZM632.846 320.92C632.846 316.44 633.753 312.52 635.566 309.16C637.38 305.747 639.86 303.107 643.006 301.24C646.206 299.373 649.753 298.44 653.646 298.44C657.486 298.44 660.82 299.267 663.646 300.92C666.473 302.573 668.58 304.653 669.966 307.16V299.16H677.326V343H669.966V334.84C668.526 337.4 666.366 339.533 663.486 341.24C660.66 342.893 657.353 343.72 653.566 343.72C649.673 343.72 646.153 342.76 643.006 340.84C639.86 338.92 637.38 336.227 635.566 332.76C633.753 329.293 632.846 325.347 632.846 320.92ZM669.966 321C669.966 317.693 669.3 314.813 667.966 312.36C666.633 309.907 664.82 308.04 662.526 306.76C660.286 305.427 657.806 304.76 655.086 304.76C652.366 304.76 649.886 305.4 647.646 306.68C645.406 307.96 643.62 309.827 642.286 312.28C640.953 314.733 640.286 317.613 640.286 320.92C640.286 324.28 640.953 327.213 642.286 329.72C643.62 332.173 645.406 334.067 647.646 335.4C649.886 336.68 652.366 337.32 655.086 337.32C657.806 337.32 660.286 336.68 662.526 335.4C664.82 334.067 666.633 332.173 667.966 329.72C669.3 327.213 669.966 324.307 669.966 321ZM696.909 283.8V343H689.629V283.8H696.909ZM716.596 283.8V343H709.316V283.8H716.596ZM759.404 310.6V316.76H727.484V310.6H759.404ZM776.826 292.04C775.44 292.04 774.266 291.56 773.306 290.6C772.346 289.64 771.866 288.467 771.866 287.08C771.866 285.693 772.346 284.52 773.306 283.56C774.266 282.6 775.44 282.12 776.826 282.12C778.16 282.12 779.28 282.6 780.186 283.56C781.146 284.52 781.626 285.693 781.626 287.08C781.626 288.467 781.146 289.64 780.186 290.6C779.28 291.56 778.16 292.04 776.826 292.04ZM780.346 299.16V343H773.066V299.16H780.346ZM814.114 298.36C819.447 298.36 823.767 299.987 827.074 303.24C830.38 306.44 832.034 311.08 832.034 317.16V343H824.834V318.2C824.834 313.827 823.74 310.493 821.554 308.2C819.367 305.853 816.38 304.68 812.594 304.68C808.754 304.68 805.687 305.88 803.394 308.28C801.154 310.68 800.034 314.173 800.034 318.76V343H792.754V299.16H800.034V305.4C801.474 303.16 803.42 301.427 805.874 300.2C808.38 298.973 811.127 298.36 814.114 298.36ZM874.326 310.6V316.76H842.406V310.6H874.326ZM907.108 343.72C903.001 343.72 899.268 342.787 895.908 340.92C892.601 339.053 889.988 336.413 888.068 333C886.201 329.533 885.268 325.533 885.268 321C885.268 316.52 886.228 312.573 888.148 309.16C890.121 305.693 892.788 303.053 896.148 301.24C899.508 299.373 903.268 298.44 907.428 298.44C911.588 298.44 915.348 299.373 918.708 301.24C922.068 303.053 924.708 305.667 926.628 309.08C928.601 312.493 929.588 316.467 929.588 321C929.588 325.533 928.575 329.533 926.548 333C924.575 336.413 921.881 339.053 918.468 340.92C915.055 342.787 911.268 343.72 907.108 343.72ZM907.108 337.32C909.721 337.32 912.175 336.707 914.468 335.48C916.761 334.253 918.601 332.413 919.988 329.96C921.428 327.507 922.148 324.52 922.148 321C922.148 317.48 921.455 314.493 920.068 312.04C918.681 309.587 916.868 307.773 914.628 306.6C912.388 305.373 909.961 304.76 907.348 304.76C904.681 304.76 902.228 305.373 899.988 306.6C897.801 307.773 896.041 309.587 894.708 312.04C893.375 314.493 892.708 317.48 892.708 321C892.708 324.573 893.348 327.587 894.628 330.04C895.961 332.493 897.721 334.333 899.908 335.56C902.095 336.733 904.495 337.32 907.108 337.32ZM960.52 298.36C965.853 298.36 970.173 299.987 973.48 303.24C976.787 306.44 978.44 311.08 978.44 317.16V343H971.24V318.2C971.24 313.827 970.147 310.493 967.96 308.2C965.773 305.853 962.787 304.68 959 304.68C955.16 304.68 952.093 305.88 949.8 308.28C947.56 310.68 946.44 314.173 946.44 318.76V343H939.16V299.16H946.44V305.4C947.88 303.16 949.827 301.427 952.28 300.2C954.787 298.973 957.533 298.36 960.52 298.36ZM1030.33 319.4C1030.33 320.787 1030.25 322.253 1030.09 323.8H995.052C995.319 328.12 996.785 331.507 999.452 333.96C1002.17 336.36 1005.45 337.56 1009.29 337.56C1012.44 337.56 1015.05 336.84 1017.13 335.4C1019.27 333.907 1020.76 331.933 1021.61 329.48H1029.45C1028.28 333.693 1025.93 337.133 1022.41 339.8C1018.89 342.413 1014.52 343.72 1009.29 343.72C1005.13 343.72 1001.4 342.787 998.092 340.92C994.839 339.053 992.279 336.413 990.412 333C988.545 329.533 987.612 325.533 987.612 321C987.612 316.467 988.519 312.493 990.332 309.08C992.145 305.667 994.679 303.053 997.932 301.24C1001.24 299.373 1005.03 298.44 1009.29 298.44C1013.45 298.44 1017.13 299.347 1020.33 301.16C1023.53 302.973 1025.99 305.48 1027.69 308.68C1029.45 311.827 1030.33 315.4 1030.33 319.4ZM1022.81 317.88C1022.81 315.107 1022.2 312.733 1020.97 310.76C1019.75 308.733 1018.07 307.213 1015.93 306.2C1013.85 305.133 1011.53 304.6 1008.97 304.6C1005.29 304.6 1002.15 305.773 999.532 308.12C996.972 310.467 995.505 313.72 995.132 317.88H1022.81ZM1078.63 287.24C1084.71 287.24 1089.96 288.387 1094.39 290.68C1098.87 292.92 1102.28 296.147 1104.63 300.36C1107.03 304.573 1108.23 309.533 1108.23 315.24C1108.23 320.947 1107.03 325.907 1104.63 330.12C1102.28 334.28 1098.87 337.48 1094.39 339.72C1089.96 341.907 1084.71 343 1078.63 343H1061.27V287.24H1078.63ZM1078.63 337C1085.83 337 1091.32 335.107 1095.11 331.32C1098.9 327.48 1100.79 322.12 1100.79 315.24C1100.79 308.307 1098.87 302.893 1095.03 299C1091.24 295.107 1085.78 293.16 1078.63 293.16H1068.55V337H1078.63ZM1121.59 292.04C1120.21 292.04 1119.03 291.56 1118.07 290.6C1117.11 289.64 1116.63 288.467 1116.63 287.08C1116.63 285.693 1117.11 284.52 1118.07 283.56C1119.03 282.6 1120.21 282.12 1121.59 282.12C1122.93 282.12 1124.05 282.6 1124.95 283.56C1125.91 284.52 1126.39 285.693 1126.39 287.08C1126.39 288.467 1125.91 289.64 1124.95 290.6C1124.05 291.56 1122.93 292.04 1121.59 292.04ZM1125.11 299.16V343H1117.83V299.16H1125.11ZM1153.04 343.72C1149.68 343.72 1146.67 343.16 1144 342.04C1141.33 340.867 1139.23 339.267 1137.68 337.24C1136.13 335.16 1135.28 332.787 1135.12 330.12H1142.64C1142.85 332.307 1143.87 334.093 1145.68 335.48C1147.55 336.867 1149.97 337.56 1152.96 337.56C1155.73 337.56 1157.92 336.947 1159.52 335.72C1161.12 334.493 1161.92 332.947 1161.92 331.08C1161.92 329.16 1161.07 327.747 1159.36 326.84C1157.65 325.88 1155.01 324.947 1151.44 324.04C1148.19 323.187 1145.52 322.333 1143.44 321.48C1141.41 320.573 1139.65 319.267 1138.16 317.56C1136.72 315.8 1136 313.507 1136 310.68C1136 308.44 1136.67 306.387 1138 304.52C1139.33 302.653 1141.23 301.187 1143.68 300.12C1146.13 299 1148.93 298.44 1152.08 298.44C1156.93 298.44 1160.85 299.667 1163.84 302.12C1166.83 304.573 1168.43 307.933 1168.64 312.2H1161.36C1161.2 309.907 1160.27 308.067 1158.56 306.68C1156.91 305.293 1154.67 304.6 1151.84 304.6C1149.23 304.6 1147.15 305.16 1145.6 306.28C1144.05 307.4 1143.28 308.867 1143.28 310.68C1143.28 312.12 1143.73 313.32 1144.64 314.28C1145.6 315.187 1146.77 315.933 1148.16 316.52C1149.6 317.053 1151.57 317.667 1154.08 318.36C1157.23 319.213 1159.79 320.067 1161.76 320.92C1163.73 321.72 1165.41 322.947 1166.8 324.6C1168.24 326.253 1168.99 328.413 1169.04 331.08C1169.04 333.48 1168.37 335.64 1167.04 337.56C1165.71 339.48 1163.81 341 1161.36 342.12C1158.96 343.187 1156.19 343.72 1153.04 343.72ZM1176.6 321C1176.6 316.467 1177.5 312.52 1179.32 309.16C1181.13 305.747 1183.64 303.107 1186.84 301.24C1190.09 299.373 1193.8 298.44 1197.96 298.44C1203.34 298.44 1207.77 299.747 1211.24 302.36C1214.76 304.973 1217.08 308.6 1218.2 313.24H1210.36C1209.61 310.573 1208.14 308.467 1205.96 306.92C1203.82 305.373 1201.16 304.6 1197.96 304.6C1193.8 304.6 1190.44 306.04 1187.88 308.92C1185.32 311.747 1184.04 315.773 1184.04 321C1184.04 326.28 1185.32 330.36 1187.88 333.24C1190.44 336.12 1193.8 337.56 1197.96 337.56C1201.16 337.56 1203.82 336.813 1205.96 335.32C1208.09 333.827 1209.56 331.693 1210.36 328.92H1218.2C1217.02 333.4 1214.68 337 1211.16 339.72C1207.64 342.387 1203.24 343.72 1197.96 343.72C1193.8 343.72 1190.09 342.787 1186.84 340.92C1183.64 339.053 1181.13 336.413 1179.32 333C1177.5 329.587 1176.6 325.587 1176.6 321ZM1247.03 343.72C1242.92 343.72 1239.19 342.787 1235.83 340.92C1232.52 339.053 1229.91 336.413 1227.99 333C1226.12 329.533 1225.19 325.533 1225.19 321C1225.19 316.52 1226.15 312.573 1228.07 309.16C1230.04 305.693 1232.71 303.053 1236.07 301.24C1239.43 299.373 1243.19 298.44 1247.35 298.44C1251.51 298.44 1255.27 299.373 1258.63 301.24C1261.99 303.053 1264.63 305.667 1266.55 309.08C1268.52 312.493 1269.51 316.467 1269.51 321C1269.51 325.533 1268.5 329.533 1266.47 333C1264.5 336.413 1261.8 339.053 1258.39 340.92C1254.98 342.787 1251.19 343.72 1247.03 343.72ZM1247.03 337.32C1249.64 337.32 1252.1 336.707 1254.39 335.48C1256.68 334.253 1258.52 332.413 1259.91 329.96C1261.35 327.507 1262.07 324.52 1262.07 321C1262.07 317.48 1261.38 314.493 1259.99 312.04C1258.6 309.587 1256.79 307.773 1254.55 306.6C1252.31 305.373 1249.88 304.76 1247.27 304.76C1244.6 304.76 1242.15 305.373 1239.91 306.6C1237.72 307.773 1235.96 309.587 1234.63 312.04C1233.3 314.493 1232.63 317.48 1232.63 321C1232.63 324.573 1233.27 327.587 1234.55 330.04C1235.88 332.493 1237.64 334.333 1239.83 335.56C1242.02 336.733 1244.42 337.32 1247.03 337.32ZM1286.36 306.28C1287.64 303.773 1289.46 301.827 1291.8 300.44C1294.2 299.053 1297.11 298.36 1300.52 298.36V305.88H1298.6C1290.44 305.88 1286.36 310.307 1286.36 319.16V343H1279.08V299.16H1286.36V306.28ZM1306.21 320.92C1306.21 316.44 1307.11 312.52 1308.93 309.16C1310.74 305.747 1313.22 303.107 1316.37 301.24C1319.57 299.373 1323.14 298.44 1327.09 298.44C1330.5 298.44 1333.67 299.24 1336.61 300.84C1339.54 302.387 1341.78 304.44 1343.33 307V283.8H1350.69V343H1343.33V334.76C1341.89 337.373 1339.75 339.533 1336.93 341.24C1334.1 342.893 1330.79 343.72 1327.01 343.72C1323.11 343.72 1319.57 342.76 1316.37 340.84C1313.22 338.92 1310.74 336.227 1308.93 332.76C1307.11 329.293 1306.21 325.347 1306.21 320.92ZM1343.33 321C1343.33 317.693 1342.66 314.813 1341.33 312.36C1339.99 309.907 1338.18 308.04 1335.89 306.76C1333.65 305.427 1331.17 304.76 1328.45 304.76C1325.73 304.76 1323.25 305.4 1321.01 306.68C1318.77 307.96 1316.98 309.827 1315.65 312.28C1314.31 314.733 1313.65 317.613 1313.65 320.92C1313.65 324.28 1314.31 327.213 1315.65 329.72C1316.98 332.173 1318.77 334.067 1321.01 335.4C1323.25 336.68 1325.73 337.32 1328.45 337.32C1331.17 337.32 1333.65 336.68 1335.89 335.4C1338.18 334.067 1339.99 332.173 1341.33 329.72C1342.66 327.213 1343.33 324.307 1343.33 321ZM1391.6 307.32C1393.09 304.707 1395.28 302.573 1398.16 300.92C1401.04 299.267 1404.32 298.44 1408 298.44C1411.94 298.44 1415.49 299.373 1418.64 301.24C1421.78 303.107 1424.26 305.747 1426.08 309.16C1427.89 312.52 1428.8 316.44 1428.8 320.92C1428.8 325.347 1427.89 329.293 1426.08 332.76C1424.26 336.227 1421.76 338.92 1418.56 340.84C1415.41 342.76 1411.89 343.72 1408 343.72C1404.21 343.72 1400.88 342.893 1398 341.24C1395.17 339.587 1393.04 337.48 1391.6 334.92V343H1384.32V283.8H1391.6V307.32ZM1421.36 320.92C1421.36 317.613 1420.69 314.733 1419.36 312.28C1418.02 309.827 1416.21 307.96 1413.92 306.68C1411.68 305.4 1409.2 304.76 1406.48 304.76C1403.81 304.76 1401.33 305.427 1399.04 306.76C1396.8 308.04 1394.98 309.933 1393.6 312.44C1392.26 314.893 1391.6 317.747 1391.6 321C1391.6 324.307 1392.26 327.213 1393.6 329.72C1394.98 332.173 1396.8 334.067 1399.04 335.4C1401.33 336.68 1403.81 337.32 1406.48 337.32C1409.2 337.32 1411.68 336.68 1413.92 335.4C1416.21 334.067 1418.02 332.173 1419.36 329.72C1420.69 327.213 1421.36 324.28 1421.36 320.92ZM1457.5 343.72C1453.39 343.72 1449.66 342.787 1446.3 340.92C1442.99 339.053 1440.38 336.413 1438.46 333C1436.59 329.533 1435.66 325.533 1435.66 321C1435.66 316.52 1436.62 312.573 1438.54 309.16C1440.51 305.693 1443.18 303.053 1446.54 301.24C1449.9 299.373 1453.66 298.44 1457.82 298.44C1461.98 298.44 1465.74 299.373 1469.1 301.24C1472.46 303.053 1475.1 305.667 1477.02 309.08C1478.99 312.493 1479.98 316.467 1479.98 321C1479.98 325.533 1478.97 329.533 1476.94 333C1474.97 336.413 1472.27 339.053 1468.86 340.92C1465.45 342.787 1461.66 343.72 1457.5 343.72ZM1457.5 337.32C1460.11 337.32 1462.57 336.707 1464.86 335.48C1467.15 334.253 1468.99 332.413 1470.38 329.96C1471.82 327.507 1472.54 324.52 1472.54 321C1472.54 317.48 1471.85 314.493 1470.46 312.04C1469.07 309.587 1467.26 307.773 1465.02 306.6C1462.78 305.373 1460.35 304.76 1457.74 304.76C1455.07 304.76 1452.62 305.373 1450.38 306.6C1448.19 307.773 1446.43 309.587 1445.1 312.04C1443.77 314.493 1443.1 317.48 1443.1 321C1443.1 324.573 1443.74 327.587 1445.02 330.04C1446.35 332.493 1448.11 334.333 1450.3 335.56C1452.49 336.733 1454.89 337.32 1457.5 337.32ZM1498.43 305.16V331C1498.43 333.133 1498.88 334.653 1499.79 335.56C1500.7 336.413 1502.27 336.84 1504.51 336.84H1509.87V343H1503.31C1499.26 343 1496.22 342.067 1494.19 340.2C1492.16 338.333 1491.15 335.267 1491.15 331V305.16H1485.47V299.16H1491.15V288.12H1498.43V299.16H1509.87V305.16H1498.43Z" fill="white" fill-opacity="0.78"/>
</svg>
