<svg width="958" height="435" viewBox="0 0 958 435" fill="none" xmlns="http://www.w3.org/2000/svg">
<rect x="217.116" y="51.6188" width="234.048" height="234.048" transform="rotate(45 217.116 51.6188)" stroke="#102B49" stroke-width="73"/>
<path d="M555.128 161.672C555.128 167.24 553.208 171.88 549.368 175.592C545.592 179.24 539.8 181.064 531.992 181.064H519.128V209H510.392V142.088H531.992C539.544 142.088 545.272 143.912 549.176 147.56C553.144 151.208 555.128 155.912 555.128 161.672ZM531.992 173.864C536.856 173.864 540.44 172.808 542.744 170.696C545.048 168.584 546.2 165.576 546.2 161.672C546.2 153.416 541.464 149.288 531.992 149.288H519.128V173.864H531.992ZM613.986 180.68C613.986 182.344 613.89 184.104 613.698 185.96H571.65C571.97 191.144 573.73 195.208 576.93 198.152C580.194 201.032 584.13 202.472 588.738 202.472C592.514 202.472 595.65 201.608 598.146 199.88C600.706 198.088 602.498 195.72 603.522 192.776H612.93C611.522 197.832 608.706 201.96 604.482 205.16C600.258 208.296 595.01 209.864 588.738 209.864C583.746 209.864 579.266 208.744 575.298 206.504C571.394 204.264 568.322 201.096 566.082 197C563.842 192.84 562.722 188.04 562.722 182.6C562.722 177.16 563.81 172.392 565.986 168.296C568.162 164.2 571.202 161.064 575.106 158.888C579.074 156.648 583.618 155.528 588.738 155.528C593.73 155.528 598.146 156.616 601.986 158.792C605.826 160.968 608.77 163.976 610.818 167.816C612.93 171.592 613.986 175.88 613.986 180.68ZM604.962 178.856C604.962 175.528 604.226 172.68 602.754 170.312C601.282 167.88 599.266 166.056 596.706 164.84C594.21 163.56 591.426 162.92 588.354 162.92C583.938 162.92 580.162 164.328 577.026 167.144C573.954 169.96 572.194 173.864 571.746 178.856H604.962ZM673.517 180.68C673.517 182.344 673.421 184.104 673.229 185.96H631.181C631.501 191.144 633.261 195.208 636.461 198.152C639.725 201.032 643.661 202.472 648.269 202.472C652.045 202.472 655.181 201.608 657.677 199.88C660.237 198.088 662.029 195.72 663.053 192.776H672.461C671.053 197.832 668.237 201.96 664.013 205.16C659.789 208.296 654.541 209.864 648.269 209.864C643.277 209.864 638.797 208.744 634.829 206.504C630.925 204.264 627.853 201.096 625.613 197C623.373 192.84 622.253 188.04 622.253 182.6C622.253 177.16 623.341 172.392 625.517 168.296C627.693 164.2 630.733 161.064 634.637 158.888C638.605 156.648 643.149 155.528 648.269 155.528C653.261 155.528 657.677 156.616 661.517 158.792C665.357 160.968 668.301 163.976 670.349 167.816C672.461 171.592 673.517 175.88 673.517 180.68ZM664.493 178.856C664.493 175.528 663.757 172.68 662.285 170.312C660.813 167.88 658.797 166.056 656.237 164.84C653.741 163.56 650.957 162.92 647.885 162.92C643.469 162.92 639.693 164.328 636.557 167.144C633.485 169.96 631.725 173.864 631.277 178.856H664.493ZM693.784 164.936C695.32 161.928 697.496 159.592 700.312 157.928C703.192 156.264 706.68 155.432 710.776 155.432V164.456H708.472C698.68 164.456 693.784 169.768 693.784 180.392V209H685.048V156.392H693.784V164.936Z" fill="black"/>
<path d="M520.604 254.42H509.66L507.644 260H504.188L513.26 235.052H517.04L526.076 260H522.62L520.604 254.42ZM519.668 251.756L515.132 239.084L510.596 251.756H519.668ZM539.642 239.912C542.042 239.912 543.986 240.644 545.474 242.108C546.962 243.548 547.706 245.636 547.706 248.372V260H544.466V248.84C544.466 246.872 543.974 245.372 542.99 244.34C542.006 243.284 540.662 242.756 538.958 242.756C537.23 242.756 535.85 243.296 534.818 244.376C533.81 245.456 533.306 247.028 533.306 249.092V260H530.03V240.272H533.306V243.08C533.954 242.072 534.83 241.292 535.934 240.74C537.062 240.188 538.298 239.912 539.642 239.912ZM561.431 250.064C561.431 248.048 561.839 246.284 562.655 244.772C563.471 243.236 564.587 242.048 566.003 241.208C567.443 240.368 569.039 239.948 570.791 239.948C572.519 239.948 574.019 240.32 575.291 241.064C576.563 241.808 577.511 242.744 578.135 243.872V240.272H581.447V260H578.135V256.328C577.487 257.48 576.515 258.44 575.219 259.208C573.947 259.952 572.459 260.324 570.755 260.324C569.003 260.324 567.419 259.892 566.003 259.028C564.587 258.164 563.471 256.952 562.655 255.392C561.839 253.832 561.431 252.056 561.431 250.064ZM578.135 250.1C578.135 248.612 577.835 247.316 577.235 246.212C576.635 245.108 575.819 244.268 574.787 243.692C573.779 243.092 572.663 242.792 571.439 242.792C570.215 242.792 569.099 243.08 568.091 243.656C567.083 244.232 566.279 245.072 565.679 246.176C565.079 247.28 564.779 248.576 564.779 250.064C564.779 251.576 565.079 252.896 565.679 254.024C566.279 255.128 567.083 255.98 568.091 256.58C569.099 257.156 570.215 257.444 571.439 257.444C572.663 257.444 573.779 257.156 574.787 256.58C575.819 255.98 576.635 255.128 577.235 254.024C577.835 252.896 578.135 251.588 578.135 250.1ZM590.259 233.36V260H586.983V233.36H590.259ZM599.118 233.36V260H595.842V233.36H599.118ZM618.382 245.42V248.192H604.018V245.42H618.382ZM626.222 237.068C625.598 237.068 625.07 236.852 624.638 236.42C624.206 235.988 623.99 235.46 623.99 234.836C623.99 234.212 624.206 233.684 624.638 233.252C625.07 232.82 625.598 232.604 626.222 232.604C626.822 232.604 627.326 232.82 627.734 233.252C628.166 233.684 628.382 234.212 628.382 234.836C628.382 235.46 628.166 235.988 627.734 236.42C627.326 236.852 626.822 237.068 626.222 237.068ZM627.806 240.272V260H624.53V240.272H627.806ZM643.001 239.912C645.401 239.912 647.345 240.644 648.833 242.108C650.321 243.548 651.065 245.636 651.065 248.372V260H647.825V248.84C647.825 246.872 647.333 245.372 646.349 244.34C645.365 243.284 644.021 242.756 642.317 242.756C640.589 242.756 639.209 243.296 638.177 244.376C637.169 245.456 636.665 247.028 636.665 249.092V260H633.389V240.272H636.665V243.08C637.313 242.072 638.189 241.292 639.293 240.74C640.421 240.188 641.657 239.912 643.001 239.912ZM670.097 245.42V248.192H655.733V245.42H670.097ZM684.849 260.324C683.001 260.324 681.321 259.904 679.809 259.064C678.321 258.224 677.145 257.036 676.281 255.5C675.441 253.94 675.021 252.14 675.021 250.1C675.021 248.084 675.453 246.308 676.317 244.772C677.205 243.212 678.405 242.024 679.917 241.208C681.429 240.368 683.121 239.948 684.993 239.948C686.865 239.948 688.557 240.368 690.069 241.208C691.581 242.024 692.769 243.2 693.633 244.736C694.521 246.272 694.965 248.06 694.965 250.1C694.965 252.14 694.509 253.94 693.597 255.5C692.709 257.036 691.497 258.224 689.961 259.064C688.425 259.904 686.721 260.324 684.849 260.324ZM684.849 257.444C686.025 257.444 687.129 257.168 688.161 256.616C689.193 256.064 690.021 255.236 690.645 254.132C691.293 253.028 691.617 251.684 691.617 250.1C691.617 248.516 691.305 247.172 690.681 246.068C690.057 244.964 689.241 244.148 688.233 243.62C687.225 243.068 686.133 242.792 684.957 242.792C683.757 242.792 682.653 243.068 681.645 243.62C680.661 244.148 679.869 244.964 679.269 246.068C678.669 247.172 678.369 248.516 678.369 250.1C678.369 251.708 678.657 253.064 679.233 254.168C679.833 255.272 680.625 256.1 681.609 256.652C682.593 257.18 683.673 257.444 684.849 257.444ZM708.884 239.912C711.284 239.912 713.228 240.644 714.716 242.108C716.204 243.548 716.948 245.636 716.948 248.372V260H713.708V248.84C713.708 246.872 713.216 245.372 712.232 244.34C711.248 243.284 709.904 242.756 708.2 242.756C706.472 242.756 705.092 243.296 704.06 244.376C703.052 245.456 702.548 247.028 702.548 249.092V260H699.272V240.272H702.548V243.08C703.196 242.072 704.072 241.292 705.176 240.74C706.304 240.188 707.54 239.912 708.884 239.912ZM740.299 249.38C740.299 250.004 740.263 250.664 740.191 251.36H724.423C724.543 253.304 725.203 254.828 726.403 255.932C727.627 257.012 729.103 257.552 730.831 257.552C732.247 257.552 733.423 257.228 734.359 256.58C735.319 255.908 735.991 255.02 736.375 253.916H739.903C739.375 255.812 738.319 257.36 736.735 258.56C735.151 259.736 733.183 260.324 730.831 260.324C728.959 260.324 727.279 259.904 725.791 259.064C724.327 258.224 723.175 257.036 722.335 255.5C721.495 253.94 721.075 252.14 721.075 250.1C721.075 248.06 721.483 246.272 722.299 244.736C723.115 243.2 724.255 242.024 725.719 241.208C727.207 240.368 728.911 239.948 730.831 239.948C732.703 239.948 734.359 240.356 735.799 241.172C737.239 241.988 738.343 243.116 739.111 244.556C739.903 245.972 740.299 247.58 740.299 249.38ZM736.915 248.696C736.915 247.448 736.639 246.38 736.087 245.492C735.535 244.58 734.779 243.896 733.819 243.44C732.883 242.96 731.839 242.72 730.687 242.72C729.031 242.72 727.615 243.248 726.439 244.304C725.287 245.36 724.627 246.824 724.459 248.696H736.915ZM762.033 234.908C764.769 234.908 767.133 235.424 769.125 236.456C771.141 237.464 772.677 238.916 773.733 240.812C774.813 242.708 775.353 244.94 775.353 247.508C775.353 250.076 774.813 252.308 773.733 254.204C772.677 256.076 771.141 257.516 769.125 258.524C767.133 259.508 764.769 260 762.033 260H754.221V234.908H762.033ZM762.033 257.3C765.273 257.3 767.745 256.448 769.449 254.744C771.153 253.016 772.005 250.604 772.005 247.508C772.005 244.388 771.141 241.952 769.413 240.2C767.709 238.448 765.249 237.572 762.033 237.572H757.497V257.3H762.033ZM781.366 237.068C780.742 237.068 780.214 236.852 779.782 236.42C779.35 235.988 779.134 235.46 779.134 234.836C779.134 234.212 779.35 233.684 779.782 233.252C780.214 232.82 780.742 232.604 781.366 232.604C781.966 232.604 782.47 232.82 782.878 233.252C783.31 233.684 783.526 234.212 783.526 234.836C783.526 235.46 783.31 235.988 782.878 236.42C782.47 236.852 781.966 237.068 781.366 237.068ZM782.95 240.272V260H779.674V240.272H782.95ZM795.518 260.324C794.006 260.324 792.65 260.072 791.45 259.568C790.25 259.04 789.302 258.32 788.606 257.408C787.91 256.472 787.526 255.404 787.454 254.204H790.838C790.934 255.188 791.39 255.992 792.206 256.616C793.046 257.24 794.138 257.552 795.482 257.552C796.73 257.552 797.714 257.276 798.434 256.724C799.154 256.172 799.514 255.476 799.514 254.636C799.514 253.772 799.13 253.136 798.362 252.728C797.594 252.296 796.406 251.876 794.798 251.468C793.334 251.084 792.134 250.7 791.198 250.316C790.286 249.908 789.494 249.32 788.822 248.552C788.174 247.76 787.85 246.728 787.85 245.456C787.85 244.448 788.15 243.524 788.75 242.684C789.35 241.844 790.202 241.184 791.306 240.704C792.41 240.2 793.67 239.948 795.086 239.948C797.27 239.948 799.034 240.5 800.378 241.604C801.722 242.708 802.442 244.22 802.538 246.14H799.262C799.19 245.108 798.77 244.28 798.002 243.656C797.258 243.032 796.25 242.72 794.978 242.72C793.802 242.72 792.866 242.972 792.17 243.476C791.474 243.98 791.126 244.64 791.126 245.456C791.126 246.104 791.33 246.644 791.738 247.076C792.17 247.484 792.698 247.82 793.322 248.084C793.97 248.324 794.858 248.6 795.986 248.912C797.402 249.296 798.554 249.68 799.442 250.064C800.33 250.424 801.086 250.976 801.71 251.72C802.358 252.464 802.694 253.436 802.718 254.636C802.718 255.716 802.418 256.688 801.818 257.552C801.218 258.416 800.366 259.1 799.262 259.604C798.182 260.084 796.934 260.324 795.518 260.324ZM806.118 250.1C806.118 248.06 806.526 246.284 807.342 244.772C808.158 243.236 809.286 242.048 810.726 241.208C812.19 240.368 813.858 239.948 815.73 239.948C818.154 239.948 820.146 240.536 821.706 241.712C823.29 242.888 824.334 244.52 824.838 246.608H821.31C820.974 245.408 820.314 244.46 819.33 243.764C818.37 243.068 817.17 242.72 815.73 242.72C813.858 242.72 812.346 243.368 811.194 244.664C810.042 245.936 809.466 247.748 809.466 250.1C809.466 252.476 810.042 254.312 811.194 255.608C812.346 256.904 813.858 257.552 815.73 257.552C817.17 257.552 818.37 257.216 819.33 256.544C820.29 255.872 820.95 254.912 821.31 253.664H824.838C824.31 255.68 823.254 257.3 821.67 258.524C820.086 259.724 818.106 260.324 815.73 260.324C813.858 260.324 812.19 259.904 810.726 259.064C809.286 258.224 808.158 257.036 807.342 255.5C806.526 253.964 806.118 252.164 806.118 250.1ZM837.814 260.324C835.966 260.324 834.286 259.904 832.774 259.064C831.286 258.224 830.11 257.036 829.246 255.5C828.406 253.94 827.986 252.14 827.986 250.1C827.986 248.084 828.418 246.308 829.282 244.772C830.17 243.212 831.37 242.024 832.882 241.208C834.394 240.368 836.086 239.948 837.958 239.948C839.83 239.948 841.522 240.368 843.034 241.208C844.546 242.024 845.734 243.2 846.598 244.736C847.486 246.272 847.93 248.06 847.93 250.1C847.93 252.14 847.474 253.94 846.562 255.5C845.674 257.036 844.462 258.224 842.926 259.064C841.39 259.904 839.686 260.324 837.814 260.324ZM837.814 257.444C838.99 257.444 840.094 257.168 841.126 256.616C842.158 256.064 842.986 255.236 843.61 254.132C844.258 253.028 844.582 251.684 844.582 250.1C844.582 248.516 844.27 247.172 843.646 246.068C843.022 244.964 842.206 244.148 841.198 243.62C840.19 243.068 839.098 242.792 837.922 242.792C836.722 242.792 835.618 243.068 834.61 243.62C833.626 244.148 832.834 244.964 832.234 246.068C831.634 247.172 831.334 248.516 831.334 250.1C831.334 251.708 831.622 253.064 832.198 254.168C832.798 255.272 833.59 256.1 834.574 256.652C835.558 257.18 836.638 257.444 837.814 257.444ZM855.513 243.476C856.089 242.348 856.905 241.472 857.961 240.848C859.041 240.224 860.349 239.912 861.885 239.912V243.296H861.021C857.349 243.296 855.513 245.288 855.513 249.272V260H852.237V240.272H855.513V243.476ZM864.443 250.064C864.443 248.048 864.851 246.284 865.667 244.772C866.483 243.236 867.599 242.048 869.015 241.208C870.455 240.368 872.063 239.948 873.839 239.948C875.375 239.948 876.803 240.308 878.123 241.028C879.443 241.724 880.451 242.648 881.147 243.8V233.36H884.459V260H881.147V256.292C880.499 257.468 879.539 258.44 878.267 259.208C876.995 259.952 875.507 260.324 873.803 260.324C872.051 260.324 870.455 259.892 869.015 259.028C867.599 258.164 866.483 256.952 865.667 255.392C864.851 253.832 864.443 252.056 864.443 250.064ZM881.147 250.1C881.147 248.612 880.847 247.316 880.247 246.212C879.647 245.108 878.831 244.268 877.799 243.692C876.791 243.092 875.675 242.792 874.451 242.792C873.227 242.792 872.111 243.08 871.103 243.656C870.095 244.232 869.291 245.072 868.691 246.176C868.091 247.28 867.791 248.576 867.791 250.064C867.791 251.576 868.091 252.896 868.691 254.024C869.291 255.128 870.095 255.98 871.103 256.58C872.111 257.156 873.227 257.444 874.451 257.444C875.675 257.444 876.791 257.156 877.799 256.58C878.831 255.98 879.647 255.128 880.247 254.024C880.847 252.896 881.147 251.588 881.147 250.1ZM902.868 243.944C903.54 242.768 904.524 241.808 905.82 241.064C907.116 240.32 908.592 239.948 910.248 239.948C912.024 239.948 913.62 240.368 915.036 241.208C916.452 242.048 917.568 243.236 918.384 244.772C919.2 246.284 919.608 248.048 919.608 250.064C919.608 252.056 919.2 253.832 918.384 255.392C917.568 256.952 916.44 258.164 915 259.028C913.584 259.892 912 260.324 910.248 260.324C908.544 260.324 907.044 259.952 905.748 259.208C904.476 258.464 903.516 257.516 902.868 256.364V260H899.592V233.36H902.868V243.944ZM916.26 250.064C916.26 248.576 915.96 247.28 915.36 246.176C914.76 245.072 913.944 244.232 912.912 243.656C911.904 243.08 910.788 242.792 909.564 242.792C908.364 242.792 907.248 243.092 906.216 243.692C905.208 244.268 904.392 245.12 903.768 246.248C903.168 247.352 902.868 248.636 902.868 250.1C902.868 251.588 903.168 252.896 903.768 254.024C904.392 255.128 905.208 255.98 906.216 256.58C907.248 257.156 908.364 257.444 909.564 257.444C910.788 257.444 911.904 257.156 912.912 256.58C913.944 255.98 914.76 255.128 915.36 254.024C915.96 252.896 916.26 251.576 916.26 250.064ZM932.524 260.324C930.676 260.324 928.996 259.904 927.484 259.064C925.996 258.224 924.82 257.036 923.956 255.5C923.116 253.94 922.696 252.14 922.696 250.1C922.696 248.084 923.128 246.308 923.992 244.772C924.88 243.212 926.08 242.024 927.592 241.208C929.104 240.368 930.796 239.948 932.668 239.948C934.54 239.948 936.232 240.368 937.744 241.208C939.256 242.024 940.444 243.2 941.308 244.736C942.196 246.272 942.64 248.06 942.64 250.1C942.64 252.14 942.184 253.94 941.272 255.5C940.384 257.036 939.172 258.224 937.636 259.064C936.1 259.904 934.396 260.324 932.524 260.324ZM932.524 257.444C933.7 257.444 934.804 257.168 935.836 256.616C936.868 256.064 937.696 255.236 938.32 254.132C938.968 253.028 939.292 251.684 939.292 250.1C939.292 248.516 938.98 247.172 938.356 246.068C937.732 244.964 936.916 244.148 935.908 243.62C934.9 243.068 933.808 242.792 932.632 242.792C931.432 242.792 930.328 243.068 929.32 243.62C928.336 244.148 927.544 244.964 926.944 246.068C926.344 247.172 926.044 248.516 926.044 250.1C926.044 251.708 926.332 253.064 926.908 254.168C927.508 255.272 928.3 256.1 929.284 256.652C930.268 257.18 931.348 257.444 932.524 257.444ZM950.944 242.972V254.6C950.944 255.56 951.148 256.244 951.556 256.652C951.964 257.036 952.672 257.228 953.68 257.228H956.092V260H953.14C951.316 260 949.948 259.58 949.036 258.74C948.124 257.9 947.668 256.52 947.668 254.6V242.972H945.112V240.272H947.668V235.304H950.944V240.272H956.092V242.972H950.944Z" fill="black" fill-opacity="0.78"/>
</svg>
